PathFileType	4	(X/Y/Z)	\\Move.snu.ac.kr\motion\Animal\091204_091205_Bird\091205_bird\Project 2\Capture day 2\Session 1\pigeon_027.trc
DataRate	CameraRate	NumFrames	NumMarkers	Units	OrigDataRate	OrigDataStartFrame	OrigNumFrames
240.0	240.0	17	14	mm	240.0	159	2723
Frame#	Time	14MarkersBird:Head			14MarkersBird:C_back			14MarkersBird:Spine			14MarkersBird:L-shoulder			14MarkersBird:L-elbow			14MarkersBird:L-wrist			14MarkersBird:L-hand			14MarkersBird:R-shoulder			14MarkersBird:R-elbow			14MarkersBird:R-Wrist			14MarkersBird:R-hand			14MarkersBird:C_Tail			14MarkersBird:L-Tale			14MarkersBird:R-Tale			
		X1	Y1	Z1	X2	Y2	Z2	X3	Y3	Z3	X4	Y4	Z4	X5	Y5	Z5	X6	Y6	Z6	X7	Y7	Z7	X8	Y8	Z8	X9	Y9	Z9	X10	Y10	Z10	X11	Y11	Z11	X12	Y12	Z12	X13	Y13	Z13	X14	Y14	Z14	

1572	6.546	-966.93353	1362.50244	920.75366	-948.55103	1368.51685	862.48914	-925.81470	1363.91968	812.16278	-936.82733	1367.21191	895.99731	-935.95447	1391.12585	870.20428	-915.42987	1426.20361	892.84137	-915.23499	1453.76733	883.39465	-976.03253	1355.29504	880.26617	-974.76727	1382.94836	859.38751	-1015.50879	1397.65088	856.43243	-1035.18115	1426.48901	834.92603	-862.78271	1323.23315	713.48651	-825.67261	1377.18127	811.18774	-993.12909	1313.70508	736.81799	
1573	6.550	-968.50562	1358.29492	928.75159	-949.65143	1363.68774	870.43878	-926.98785	1358.86804	820.42163	-938.00275	1362.69226	904.33905	-933.17847	1386.88733	880.88458	-908.68756	1417.50476	904.90277	-903.88342	1445.54077	900.38739	-978.02295	1350.04175	888.36334	-980.00641	1375.88574	865.54388	-1022.66272	1384.57764	862.25580	-1047.76233	1408.47571	841.95001	-864.26324	1319.64124	721.39355	-826.68762	1371.08044	820.83154	-994.73938	1308.29785	745.49933	
1574	6.554	-970.16248	1354.21997	936.82507	-950.84369	1359.01807	878.64771	-928.37134	1354.27429	828.69073	-939.26617	1358.08557	912.78607	-929.92987	1381.86450	892.03577	-902.16235	1406.59216	917.91058	-892.07935	1433.56360	918.44324	-980.05621	1344.68579	896.70941	-985.28485	1367.70984	872.07086	-1029.25696	1369.74072	869.50055	-1059.25195	1386.72070	850.55908	-865.27942	1315.30286	730.04541	-827.60028	1364.59924	829.86218	-995.81671	1302.34167	753.96765	
1575	6.558	-971.90015	1350.21814	945.04120	-952.13385	1354.63086	887.10828	-929.98993	1350.27502	836.96454	-940.64490	1353.41943	921.34106	-926.61047	1375.88086	903.63867	-896.93018	1393.51514	931.87683	-882.02441	1417.78125	937.16406	-982.11761	1339.30591	905.24084	-990.65503	1358.40161	879.44385	-1034.62964	1353.52246	878.78546	-1068.22754	1362.33057	861.80652	-866.11737	1310.23779	739.23431	-828.47974	1357.81567	838.36121	-996.37073	1296.10938	762.16858	
1576	6.563	-973.71277	1346.21228	953.43469	-953.53461	1350.55615	895.77173	-931.86438	1346.96667	845.24384	-942.17505	1348.76550	930.00220	-923.68744	1368.90991	915.56860	-893.88947	1378.54346	946.49176	-875.32520	1398.69287	956.05536	-984.16821	1334.06384	913.88556	-995.94946	1348.25806	887.95184	-1038.15735	1336.46387	890.32904	-1073.58960	1336.59021	876.08240	-867.15765	1304.67505	748.68427	-829.49426	1351.04028	846.56995	-996.55627	1290.08142	770.08655	
1577	6.567	-975.60425	1342.16028	961.98303	-955.08844	1346.73706	904.54706	-933.99963	1344.24072	853.62598	-943.90161	1344.22314	938.78735	-921.57355	1361.06519	927.59418	-893.65112	1362.24084	961.09381	-872.87897	1377.04211	974.42877	-986.21289	1329.11487	922.58105	-1000.70337	1337.74622	897.61365	-1039.36255	1319.41077	903.91858	-1074.61328	1310.95618	893.17371	-868.72870	1298.97827	758.12537	-830.79181	1344.66223	854.68555	-996.64142	1284.74170	777.76178	
1578	6.571	-977.57880	1338.04871	970.64392	-956.85907	1343.09570	913.34393	-936.33911	1341.70471	862.28754	-945.85419	1339.86365	947.72595	-920.53662	1352.60950	939.40875	-896.47528	1345.53027	974.92883	-875.02136	1353.83350	991.40289	-988.31561	1324.54761	931.32135	-1004.43646	1327.40161	908.14197	-1038.08362	1303.46240	918.99365	-1071.06335	1287.01526	912.42133	-870.99200	1293.50635	767.35706	-832.42896	1338.95374	862.75836	-996.93353	1280.33826	785.32086	
1579	6.575	-979.63391	1333.83850	979.40326	-958.89240	1339.59338	922.12848	-938.74261	1339.04785	871.07410	-948.01886	1335.67212	956.82458	-920.63977	1343.95276	950.69348	-902.18457	1329.59412	987.42572	-881.65869	1330.52136	1006.07007	-990.54602	1320.36902	940.16626	-1006.97803	1317.75281	919.01306	-1034.59558	1289.71924	934.78357	-1063.34778	1266.35828	932.84406	-873.89807	1288.47571	776.31006	-834.37738	1333.94360	870.75659	-997.68542	1276.77075	792.96326	
1580	6.579	-981.77026	1329.47083	988.26996	-961.19952	1336.20776	930.94641	-941.21619	1336.12524	880.00043	-950.35699	1331.57202	966.07080	-921.74005	1335.58130	961.19128	-910.10291	1315.66138	998.35077	-892.18982	1309.03345	1017.85950	-992.92609	1316.50061	949.17175	-1008.54620	1309.23108	929.61688	-1029.65466	1279.04260	950.48053	-1052.62683	1250.30933	953.31073	-877.22760	1283.90588	785.06555	-836.55774	1329.38281	878.67834	-999.02740	1273.64124	800.90106	
1581	6.583	-983.99695	1324.89185	997.26807	-963.75098	1332.87927	939.89868	-943.73505	1332.83716	889.09937	-952.85107	1327.50439	975.46497	-923.54736	1327.95618	970.75848	-919.13855	1304.80017	1007.84949	-905.38776	1291.39844	1026.90662	-995.42273	1312.80359	958.35376	-1009.58923	1302.09143	939.48651	-1024.47046	1271.88318	965.33307	-1040.77515	1239.60437	972.77460	-880.68884	1279.66357	793.81433	-838.87634	1324.82141	886.59656	-1000.92303	1270.39539	809.30847	
1582	6.588	-986.32971	1320.07983	1006.42767	-966.51074	1329.48730	949.08875	-946.26355	1329.14197	898.38354	-955.51849	1323.44556	985.01331	-925.72565	1321.43713	979.38464	-928.01489	1297.66138	1016.34149	-919.44214	1279.07983	1034.02527	-997.98401	1309.12988	967.70825	-1010.62354	1296.41382	948.41364	-1020.52295	1268.18896	978.72150	-1030.08057	1234.15442	990.39294	-884.04565	1275.53796	802.77271	-841.25385	1319.77905	894.64392	-1003.17877	1266.50464	818.28998	
1583	6.592	-988.78882	1315.04590	1015.77783	-969.45398	1325.86243	958.57495	-948.81757	1325.07690	907.88379	-958.36884	1319.34729	994.69818	-928.01544	1316.26294	987.17334	-935.60291	1294.24585	1024.30566	-932.28522	1272.42725	1040.32751	-1000.57837	1305.35278	977.22052	-1012.10303	1292.16931	956.38269	-1019.09753	1267.38025	990.20300	-1022.65674	1232.98438	1005.51794	-887.18805	1271.29272	812.11334	-843.65820	1313.97632	902.95532	-1005.50842	1261.68347	827.83197	
1584	6.596	-991.39600	1309.81238	1025.33911	-972.54266	1321.84558	968.36670	-951.44202	1320.73254	917.62671	-961.36053	1315.10242	1004.48254	-930.35779	1312.55798	994.30457	-941.23169	1293.92847	1032.10254	-942.13605	1270.58630	1046.78833	-1003.20520	1301.36047	986.87286	-1014.23419	1289.29688	963.50049	-1020.73993	1268.57776	999.71661	-1019.78510	1234.47510	1017.68384	-890.11072	1266.72144	821.92249	-846.11224	1307.50891	911.59790	-1007.63757	1256.02002	837.77820	
1585	6.600	-994.16418	1304.40527	1035.10291	-975.70880	1317.33020	978.43225	-954.16595	1316.19971	927.61530	-964.41479	1310.57288	1014.31122	-932.94751	1310.28418	1000.99225	-944.81396	1295.75659	1039.89954	-947.96881	1271.92126	1053.87927	-1005.87585	1297.06702	996.64258	-1016.82562	1287.74951	970.03705	-1025.13831	1270.99146	1007.65393	-1021.55579	1236.92419	1026.61926	-892.84186	1261.70325	832.18872	-848.65503	1300.82947	920.57690	-1009.40265	1249.90881	847.86658	
1586	6.604	-997.09113	1298.85144	1045.01599	-978.87152	1312.27148	988.69403	-956.97821	1311.53027	937.81244	-967.46967	1305.66394	1024.11743	-936.17242	1309.14905	1007.44031	-946.80231	1298.83704	1047.68628	-949.66797	1274.79346	1061.39771	-1008.58533	1292.46021	1006.48865	-1019.34412	1287.50977	976.45691	-1031.44690	1274.02307	1014.35638	-1027.06824	1239.19202	1032.25525	-895.38110	1256.24207	842.83795	-851.29651	1294.55225	929.92810	-1010.81720	1243.86365	857.83954	
1587	6.608	-1000.15515	1293.19067	1054.98560	-981.96399	1306.69519	999.03107	-959.83960	1306.72327	948.14520	-970.51270	1300.36865	1033.84888	-940.45447	1308.58728	1013.80865	-948.01868	1302.54236	1055.28918	-947.91089	1278.27307	1068.56934	-1011.28589	1287.66003	1016.35596	-1021.16083	1288.46106	983.37781	-1038.59436	1277.27710	1019.84821	-1034.96240	1241.01648	1034.69312	-897.68347	1250.46655	853.77795	-854.01300	1289.20398	939.79224	-1012.07758	1238.32458	867.54803	
1588	6.613	-1003.31708	1287.47339	1064.92798	-984.98834	1300.72302	1009.32184	-962.71216	1301.72986	958.53644	-973.58539	1294.79590	1043.51465	-946.05768	1307.88989	1020.19812	-949.43488	1306.43555	1062.46313	-943.97351	1282.29846	1074.35034	-1013.90387	1282.89429	1026.21606	-1021.85034	1290.15723	991.38800	-1045.41296	1280.63342	1024.26099	-1043.89832	1242.94763	1034.22607	-899.68011	1244.58667	864.92065	-856.77545	1285.01514	950.39465	-1013.47882	1233.48999	876.99860	
